<?xml version="1.0" encoding="UTF-8"?>
<svg version="1.1" xmlns="http://www.w3.org/2000/svg" width="350" height="350">
<path d="M0 0 C115.5 0 231 0 350 0 C350 115.5 350 231 350 350 C234.5 350 119 350 0 350 C0 234.5 0 119 0 0 Z " fill="#F0F2F1" transform="translate(0,0)"/>
<path d="M0 0 C10.01407393 1.29558034 19.9954911 5.67710433 27 13 C29.23051389 16.72750308 29.16619326 19.67897519 29 24 C30.2065625 23.505 30.2065625 23.505 31.4375 23 C38.66898508 20.97010945 44.2067156 21.65453744 51.0546875 24.63671875 C53.65294127 26.45758334 54.67230081 28.12060329 56 31 C57.881792 43.41982717 53.94143681 54.78031298 46.71484375 64.8203125 C40.31705663 72.95235171 33.6150617 79.23515498 25 85 C24.34 84.67 23.68 84.34 23 84 C23.556875 83.47792969 24.11375 82.95585937 24.6875 82.41796875 C35.73326545 71.76402943 46.56918655 58.27280506 47.375 42.3125 C47.2782669 39.32904751 47.05610062 38.10000546 45.5625 35.4375 C40.96954817 32.86096605 36.34163015 33.50360179 31.328125 34.56640625 C28.67081794 35.86185986 28.67081794 35.86185986 27.91796875 39.17578125 C27.65929481 40.55191984 27.41701426 41.93119886 27.1875 43.3125 C21.73463986 70.11709512 8.54747263 94.06592111 -14 110.06640625 C-29.96858577 120.3586588 -47.43116843 123.63431466 -66.24804688 120.64257812 C-71.84976954 119.40325895 -76.54765552 117.63903566 -81 114 C-80.08089844 114.16113281 -79.16179687 114.32226562 -78.21484375 114.48828125 C-73.01155307 115.22749655 -67.8088409 115.18412615 -62.5625 115.1875 C-61.56412109 115.19974609 -60.56574219 115.21199219 -59.53710938 115.22460938 C-43.41100538 115.25641629 -29.47614644 108.89955098 -17 99 C-15.63875 97.62328125 -15.63875 97.62328125 -14.25 96.21875 C-12 94 -12 94 -10 94 C-9.74863281 93.43796875 -9.49726563 92.8759375 -9.23828125 92.296875 C-7.81584969 89.6584215 -6.10532149 87.55285257 -4.1875 85.25 C-0.74683557 80.99574886 2.36287112 76.79560081 5 72 C5.39703125 71.28457031 5.7940625 70.56914062 6.203125 69.83203125 C9.45434438 63.3604585 11.39416874 56.58043931 13.3125 49.625 C13.57925537 48.66126465 13.84601074 47.6975293 14.12084961 46.70458984 C15.2839686 42.33285355 16.14742828 38.5505183 16 34 C15.34 34.30292969 14.68 34.60585937 14 34.91796875 C6.43268977 38.12028102 -1.09471464 40.0776435 -9.125 41.75 C-10.1253125 41.96035889 -11.125625 42.17071777 -12.15625 42.38745117 C-24.51704755 44.86630206 -36.68273509 45.21280116 -49.24829102 45.24023438 C-51.90088155 45.24986702 -54.55267075 45.28094427 -57.20507812 45.3125 C-79.72054466 45.45118208 -103.64710522 42.17644739 -124 32 C-121.01607537 55.97146766 -115.7645628 79.95696618 -100 99 C-100.33 99.66 -100.66 100.32 -101 101 C-115.0156941 87.9672247 -123.47232559 71.17432344 -129 53 C-129.3196875 51.96359375 -129.639375 50.9271875 -129.96875 49.859375 C-131.99678601 42.08523696 -132.36305373 34.44496948 -132.5 26.4375 C-132.5306958 25.38965332 -132.5613916 24.34180664 -132.59301758 23.26220703 C-132.59504089 14.93021372 -132.59504089 14.93021372 -129.46875 11.78515625 C-128.6540625 11.19605469 -127.839375 10.60695312 -127 10 C-127.13020833 11.92057292 -127.26041667 13.84114583 -127.390625 15.76171875 C-126.81295174 19.07178653 -125.32099439 20.60265711 -123 23 C-110.46321728 31.14890877 -95.62150901 34.07077312 -81 36 C-80.154375 36.11214844 -79.30875 36.22429687 -78.4375 36.33984375 C-51.50147686 39.19788109 -15.35999586 38.68509647 8.5625 24 C11.2624302 21.78467265 13.23626717 20.03362047 15 17 C15.19675756 13.39277808 14.96320226 11.15746154 12.60546875 8.32421875 C8.7709001 4.83588655 4.8404777 2.77813467 0 1 C0 0.67 0 0.34 0 0 Z " fill="#491B1B" transform="translate(213,147)"/>
<path d="M0 0 C0.66 0.33 1.32 0.66 2 1 C1.01 1.66 0.02 2.32 -1 3 C1.97 3.99 4.94 4.98 8 6 C7.34 7.98 6.68 9.96 6 12 C6.99 12 7.98 12 9 12 C9.66 12.33 10.32 12.66 11 13 C10.67 13.99 10.34 14.98 10 16 C9.35712125 21.46446934 10.37072834 24.56014022 13.38671875 28.9609375 C17.38509926 34.01458066 22.10990107 38.2679461 27 42.4375 C35.17190183 49.53583826 44.15001543 58.87998408 46 70 C46.64987663 79.84403295 47.06155381 88.14050712 40.33984375 95.921875 C34.21718474 102.00681742 26.836991 104.12714962 18.3125 104.1875 C16.6728125 104.0946875 16.6728125 104.0946875 15 104 C15 103.67 15 103.34 15 103 C17.475 102.505 17.475 102.505 20 102 C20.78260048 99.18263828 21.19511109 97.54030762 20.1875 94.75 C19.10600632 92.84925076 19.10600632 92.84925076 17 92 C16.84600974 89.98331986 16.77786258 87.95985889 16.75 85.9375 C16.29315234 79.1805758 14.90044151 75.63139766 10 71 C7.33951623 68.72315966 4.62846941 66.52880208 1.8828125 64.35546875 C-8.49306782 55.87761531 -17.82064709 46.16346381 -19.28515625 32.30078125 C-19.61073654 22.15116953 -16.81039296 14.52145487 -10 7 C-6.84974358 3.92331645 -4.21297753 1.40432584 0 0 Z " fill="#EFEFEE" transform="translate(140,58)"/>
<path d="M0 0 C8.04561711 1.81913769 15.05913811 4.05913811 21 10 C21.4375 12.875 21.4375 12.875 21 16 C14.8703886 22.51271211 5.88830706 24.81453816 -2.5625 26.625 C-3.45001953 26.82867187 -4.33753906 27.03234375 -5.25195312 27.2421875 C-8.15945833 27.88600696 -11.07205617 28.45671595 -14 29 C-15.01360596 29.19198975 -16.02721191 29.38397949 -17.0715332 29.58178711 C-29.07235523 31.51896511 -41.15060352 31.33687366 -53.27612305 31.31567383 C-57.03008453 31.31252717 -60.78324552 31.33599243 -64.53710938 31.36132812 C-83.31214745 31.41029236 -101.90309473 30.38325663 -120 25 C-120 24.67 -120 24.34 -120 24 C-111.36946769 24.75566873 -111.36946769 24.75566873 -107.24267578 25.49194336 C-96.30805808 27.41307912 -85.42029724 27.26831918 -74.35058594 27.20581055 C-71.00708358 27.18753871 -67.6638597 27.18530168 -64.3203125 27.18554688 C-49.28978317 27.16248094 -34.6909712 26.93513162 -19.9375 23.75 C-18.90399414 23.53037598 -17.87048828 23.31075195 -16.80566406 23.08447266 C-2.94798723 20.16866562 -2.94798723 20.16866562 9 13 C9.75015195 10.04308291 9.75015195 10.04308291 9 7 C6.30927882 4.30927882 3.46612104 2.54049824 0 1 C0 0.67 0 0.34 0 0 Z " fill="#471D1B" transform="translate(216,261)"/>
<path d="M0 0 C0.33 0 0.66 0 1 0 C1.01417969 0.556875 1.02835938 1.11375 1.04296875 1.6875 C1.69639744 12.14235897 7.53855856 18.16149894 15 25 C16.3289588 26.15090413 17.66223111 27.29684834 19 28.4375 C27.17190183 35.53583826 36.15001543 44.87998408 38 56 C38.64987663 65.84403295 39.06155381 74.14050712 32.33984375 81.921875 C26.21718474 88.00681742 18.836991 90.12714962 10.3125 90.1875 C8.6728125 90.0946875 8.6728125 90.0946875 7 90 C7 89.67 7 89.34 7 89 C7.56847656 88.81824219 8.13695312 88.63648438 8.72265625 88.44921875 C19.56082306 85.17892917 19.56082306 85.17892917 28 78 C31.08178916 71.52700509 32.23220922 65.1847492 30.19140625 58.25390625 C25.8925158 46.81499015 18.14739449 38.08047568 9.8984375 29.30883789 C3.75656336 22.71091647 -1.14963027 16.68616555 -1.125 7.4375 C-1.12757813 6.46683594 -1.13015625 5.49617188 -1.1328125 4.49609375 C-1 2 -1 2 0 0 Z " fill="#481C1D" transform="translate(148,72)"/>
<path d="M0 0 C0.66 0.33 1.32 0.66 2 1 C0.700625 1.928125 0.700625 1.928125 -0.625 2.875 C-5.58211481 6.97256758 -8.98187656 12.94562968 -11 19 C-11.99934643 32.87554077 -8.9850523 41.43592607 0 52 C2.14214872 54.21398699 4.34931946 56.35731499 6.5625 58.5 C20.29589354 71.90391836 20.29589354 71.90391836 20.5625 81.875 C20.38841743 85.63742966 19.52259152 88.56029933 18 92 C17.67 92 17.34 92 17 92 C16.99613281 90.7315625 16.99613281 90.7315625 16.9921875 89.4375 C16.72051378 81.46840433 15.86282515 76.54094456 10 71 C7.33951623 68.72315966 4.62846941 66.52880208 1.8828125 64.35546875 C-8.49306782 55.87761531 -17.82064709 46.16346381 -19.28515625 32.30078125 C-19.61073654 22.15116953 -16.81039296 14.52145487 -10 7 C-6.84974358 3.92331645 -4.21297753 1.40432584 0 0 Z " fill="#481D1D" transform="translate(140,58)"/>
<path d="M0 0 C-1.65 0.66 -3.3 1.32 -5 2 C-4.01 2.99 -3.02 3.98 -2 5 C-15.0282429 7.42157042 -28.06486153 7.33877193 -41.27612305 7.31567383 C-45.03008453 7.31252717 -48.78324552 7.33599243 -52.53710938 7.36132812 C-71.31214745 7.41029236 -89.90309473 6.38325663 -108 1 C-108 0.67 -108 0.34 -108 0 C-99.36946769 0.75566873 -99.36946769 0.75566873 -95.24267578 1.49194336 C-84.30805808 3.41307912 -73.42029724 3.26831918 -62.35058594 3.20581055 C-59.00708358 3.18753871 -55.6638597 3.18530168 -52.3203125 3.18554688 C-37.79454543 3.16258593 -23.5985179 3.07032116 -9.35546875 -0.0703125 C-5.94136076 -0.77902953 -3.31528036 -1.26216258 0 0 Z " fill="#583536" transform="translate(204,285)"/>
<path d="M0 0 C0 0.66 0 1.32 0 2 C0.66 2.33 1.32 2.66 2 3 C2.495 3.495 2.495 3.495 3 4 C4.32520503 4.68268138 5.65812182 5.3507041 7 6 C5.845 6.45375 4.69 6.9075 3.5 7.375 C2.52546875 7.75785156 2.52546875 7.75785156 1.53125 8.1484375 C-5.85045661 10.63178942 -12.42484505 11.38714813 -20.1875 11.375 C-21.20110596 11.37411377 -22.21471191 11.37322754 -23.2590332 11.37231445 C-32.64829256 11.22442255 -41.48969157 10.13840197 -49 4 C-48.08089844 4.16113281 -47.16179687 4.32226562 -46.21484375 4.48828125 C-41.01155307 5.22749655 -35.8088409 5.18412615 -30.5625 5.1875 C-29.06493164 5.20586914 -29.06493164 5.20586914 -27.53710938 5.22460938 C-19.80630696 5.23985751 -13.42584095 3.9471824 -6.125 1.375 C-2.21782178 0 -2.21782178 0 0 0 Z " fill="#4E2123" transform="translate(181,257)"/>
<path d="M0 0 C0.33 0 0.66 0 1 0 C1.06058594 0.77085937 1.12117188 1.54171875 1.18359375 2.3359375 C1.30927734 3.84027344 1.30927734 3.84027344 1.4375 5.375 C1.51871094 6.37273437 1.59992188 7.37046875 1.68359375 8.3984375 C1.84965626 10.97927613 1.84965626 10.97927613 3 13 C-4.31130539 23.50169319 -11.32521535 30.93359326 -22 38 C-22.66 37.67 -23.32 37.34 -24 37 C-23.1646875 36.21689453 -23.1646875 36.21689453 -22.3125 35.41796875 C-12.00844862 25.47943271 -3.37673075 14.12087403 0 0 Z " fill="#4C2826" transform="translate(260,194)"/>
<path d="M0 0 C1.134375 0.020625 2.26875 0.04125 3.4375 0.0625 C3.4375 1.3825 3.4375 2.7025 3.4375 4.0625 C4.0975 2.7425 4.7575 1.4225 5.4375 0.0625 C6.20147365 9.48484163 4.3088719 16.49017651 0.4375 25.0625 C-0.5525 25.0625 -1.5425 25.0625 -2.5625 25.0625 C-2.58755615 24.47758789 -2.6126123 23.89267578 -2.63842773 23.29003906 C-2.75472962 20.63065529 -2.87730067 17.97159597 -3 15.3125 C-3.05897461 13.93191406 -3.05897461 13.93191406 -3.11914062 12.5234375 C-3.16103516 11.63398438 -3.20292969 10.74453125 -3.24609375 9.828125 C-3.28275146 9.01118164 -3.31940918 8.19423828 -3.35717773 7.35253906 C-3.50028434 5.04987729 -3.50028434 5.04987729 -4.14477539 2.82714844 C-4.28262451 2.24481445 -4.42047363 1.66248047 -4.5625 1.0625 C-3.5625 0.0625 -3.5625 0.0625 0 0 Z " fill="#441716" transform="translate(263.5625,179.9375)"/>
<path d="M0 0 C1.81188564 2.71782845 2.80157823 5.12953832 3.85253906 8.19238281 C6.68673846 16.40649305 10.40134365 23.56400476 15.046875 30.890625 C16.51807895 33.23278169 17.83599286 35.49862296 19 38 C8.8549912 30.22935497 0.86658166 18.82613376 -4 7 C-3.67 6.01 -3.34 5.02 -3 4 C-3 4.66 -3 5.32 -3 6 C-2.34 6 -1.68 6 -1 6 C-0.67 4.02 -0.34 2.04 0 0 Z " fill="#442022" transform="translate(94,210)"/>
<path d="M0 0 C0.66 0.33 1.32 0.66 2 1 C0.700625 1.928125 0.700625 1.928125 -0.625 2.875 C-6.08415226 7.38755341 -10.48786146 14.63101567 -11.31640625 21.69921875 C-11.39761719 22.68535156 -11.47882813 23.67148438 -11.5625 24.6875 C-11.64628906 25.68136719 -11.73007813 26.67523438 -11.81640625 27.69921875 C-11.87699219 28.45847656 -11.93757812 29.21773437 -12 30 C-12.33 30 -12.66 30 -13 30 C-13.66 27.69 -14.32 25.38 -15 23 C-17.02350324 26.03525486 -17.32124018 27.19426202 -17.625 30.6875 C-17.69976562 31.49574219 -17.77453125 32.30398437 -17.8515625 33.13671875 C-17.90054688 33.75160156 -17.94953125 34.36648437 -18 35 C-18.33 35 -18.66 35 -19 35 C-19.52053344 24.68572622 -18.24077449 17.03541084 -11.68359375 8.859375 C-8.25253875 5.0700892 -4.89909821 1.63303274 0 0 Z " fill="#472523" transform="translate(140,58)"/>
<path d="M0 0 C0.86753906 0.16371094 1.73507813 0.32742188 2.62890625 0.49609375 C8.69077148 1.3620745 14.82952184 1.10413803 20.9375 1.0625 C22.19369141 1.05798828 23.44988281 1.05347656 24.74414062 1.04882812 C27.82947663 1.03709681 30.91471316 1.020681 34 1 C34 1.66 34 2.32 34 3 C34.66 3 35.32 3 36 3 C36 3.66 36 4.32 36 5 C24.06680178 7.19461117 12.27766978 8.6579831 1.60546875 1.36328125 C1.07566406 0.91339844 0.54585937 0.46351563 0 0 Z " fill="#502727" transform="translate(132,261)"/>
<path d="M0 0 C1.12148437 0.00322266 2.24296875 0.00644531 3.3984375 0.00976562 C4.5740625 0.01814453 5.7496875 0.02652344 6.9609375 0.03515625 C8.14429688 0.03966797 9.32765625 0.04417969 10.546875 0.04882812 C13.47661257 0.06064158 16.40625022 0.07711367 19.3359375 0.09765625 C19.8309375 1.58265625 19.8309375 1.58265625 20.3359375 3.09765625 C17.83141821 4.34991589 16.11323758 4.22702985 13.3125 4.23046875 C12.29607422 4.23240234 11.27964844 4.23433594 10.23242188 4.23632812 C8.61303711 4.22956055 8.61303711 4.22956055 6.9609375 4.22265625 C5.87361328 4.22072266 4.78628906 4.21878906 3.66601562 4.21679688 C-3.491013 4.17820295 -10.55384463 3.9708409 -17.6640625 3.09765625 C-17.6640625 2.76765625 -17.6640625 2.43765625 -17.6640625 2.09765625 C-16.61605469 2.00677734 -16.61605469 2.00677734 -15.546875 1.9140625 C-14.63679687 1.83027344 -13.72671875 1.74648437 -12.7890625 1.66015625 C-11.88414062 1.57894531 -10.97921875 1.49773437 -10.046875 1.4140625 C-6.42002093 0.93246384 -3.82677287 -0.01932714 0 0 Z " fill="#E3D7D7" transform="translate(149.6640625,180.90234375)"/>
<path d="M0 0 C9.57 0 19.14 0 29 0 C23.73584793 4.21132166 23.17745434 4.3563916 17 4 C16.67 4.33 16.34 4.66 16 5 C14.5112814 5.08669432 13.018555 5.10703494 11.52734375 5.09765625 C10.62822266 5.09443359 9.72910156 5.09121094 8.80273438 5.08789062 C7.85720703 5.07951172 6.91167969 5.07113281 5.9375 5.0625 C4.98810547 5.05798828 4.03871094 5.05347656 3.06054688 5.04882812 C0.70696935 5.0370011 -1.64648477 5.02052025 -4 5 C-3.34 4.54625 -2.68 4.0925 -2 3.625 C-1.34 3.08875 -0.68 2.5525 0 2 C0 1.34 0 0.68 0 0 Z " fill="#431516" transform="translate(144,185)"/>
<path d="M0 0 C5.36746814 0.46996265 10.65446838 1.10818568 15.96875 2 C26.0597571 3.45748677 36.19614639 3.46310968 46.375 3.625 C48.38282766 3.66327523 50.39064058 3.70233211 52.3984375 3.7421875 C57.26550219 3.83712534 62.13264318 3.92152512 67 4 C67 4.33 67 4.66 67 5 C59.08 5.33 51.16 5.66 43 6 C43 6.33 43 6.66 43 7 C36.26283824 7.14451522 29.85479605 6.63275894 23.1875 5.6875 C22.22569824 5.55432373 21.26389648 5.42114746 20.27294922 5.28393555 C13.37474353 4.29057996 6.68826968 2.98954858 0 1 C0 0.67 0 0.34 0 0 Z " fill="#695757" transform="translate(96,285)"/>
<path d="M0 0 C1.16966309 -0.01804687 2.33932617 -0.03609375 3.54443359 -0.0546875 C4.58059814 -0.07337891 5.6167627 -0.09207031 6.68432617 -0.11132812 C9.14990234 0.1015625 9.14990234 0.1015625 11.14990234 2.1015625 C7.46633949 3.32941678 4.0631739 3.24472579 0.22802734 3.234375 C-0.55018372 3.23533173 -1.32839478 3.23628845 -2.13018799 3.23727417 C-3.77771078 3.23795454 -5.42523627 3.23611022 -7.07275391 3.23193359 C-9.57672267 3.22661218 -12.08050969 3.23186842 -14.58447266 3.23828125 C-16.18863972 3.23761988 -17.79280666 3.2363375 -19.39697266 3.234375 C-20.13888855 3.23639923 -20.88080444 3.23842346 -21.64520264 3.24050903 C-26.14509927 3.22054606 -30.40918395 2.8363637 -34.85009766 2.1015625 C-34.85009766 1.7715625 -34.85009766 1.4415625 -34.85009766 1.1015625 C-30.67335104 0.95629779 -26.49651492 0.81403865 -22.31958008 0.67431641 C-20.90483987 0.62659795 -19.49012498 0.57812153 -18.07543945 0.52880859 C-12.05098324 0.3192251 -6.02600839 0.15896129 0 0 Z " fill="#341616" transform="translate(166.85009765625,288.8984375)"/>
<path d="M0 0 C2.60533103 0.37380837 3.80506144 0.80774408 5.703125 2.6796875 C9.96057503 8.72182618 11.15729752 13.65561191 10 21 C9.38505646 22.68643608 8.73122879 24.36063223 8 26 C7.67 26 7.34 26 7 26 C6.99742187 25.16597656 6.99484375 24.33195312 6.9921875 23.47265625 C6.74230823 16.20116937 5.92038579 11.59416705 1.27734375 5.90234375 C0 4 0 4 0 0 Z " fill="#3F1A1A" transform="translate(150,124)"/>
<path d="M0 0 C-2.43939162 5.40401111 -6.09494886 8.83711494 -11.625 11.05078125 C-17.19793268 12.68396013 -22.21171838 13.32763858 -28 13 C-28 12.67 -28 12.34 -28 12 C-27.43152344 11.81824219 -26.86304688 11.63648438 -26.27734375 11.44921875 C-19.07324131 9.10397672 -12.8891817 6.93417926 -7 2 C-4.26466879 0.39098164 -3.24114485 0 0 0 Z " fill="#3F1818" transform="translate(183,149)"/>
<path d="M0 0 C0.33 0 0.66 0 1 0 C1.33 1.98 1.66 3.96 2 6 C2.99 6 3.98 6 5 6 C4.67 7.98 4.34 9.96 4 12 C3.2575 11.773125 2.515 11.54625 1.75 11.3125 C-1.04278367 10.69325956 -1.04278367 10.69325956 -3.125 12.4375 C-4.053125 13.2109375 -4.053125 13.2109375 -5 14 C-5.99 14 -6.98 14 -8 14 C-7.71682074 12.39431334 -7.42312209 10.79047953 -7.125 9.1875 C-6.96257812 8.29417969 -6.80015625 7.40085938 -6.6328125 6.48046875 C-6 4 -6 4 -4 1 C-3.34 1.66 -2.68 2.32 -2 3 C-1.34 2.01 -0.68 1.02 0 0 Z " fill="#501C1E" transform="translate(233,190)"/>
<path d="M0 0 C9.69879518 3.04819277 9.69879518 3.04819277 13 8 C12.21625 8.268125 11.4325 8.53625 10.625 8.8125 C7.71885077 9.84814432 7.71885077 9.84814432 6 13 C5.34 13 4.68 13 4 13 C3.67 11.68 3.34 10.36 3 9 C2.67 10.98 2.34 12.96 2 15 C1.67 15 1.34 15 1 15 C0.67 10.05 0.34 5.1 0 0 Z " fill="#EDE9E7" transform="translate(89,179)"/>
<path d="M0 0 C0.33 0 0.66 0 1 0 C1.22354607 1.89409978 1.42819951 3.7904348 1.625 5.6875 C1.74101562 6.74324219 1.85703125 7.79898438 1.9765625 8.88671875 C2.00137017 12.18200463 1.5501239 14.11089864 0 17 C-2.4375 18.375 -2.4375 18.375 -5 19 C-5.99 18.67 -6.98 18.34 -8 18 C-7.01 15.03 -6.02 12.06 -5 9 C-4.67 9 -4.34 9 -4 9 C-3.67 7.02 -3.34 5.04 -3 3 C-2.34 3 -1.68 3 -1 3 C-0.67 2.01 -0.34 1.02 0 0 Z " fill="#4D2123" transform="translate(184,132)"/>
<path d="M0 0 C1.28583984 -0.02126953 1.28583984 -0.02126953 2.59765625 -0.04296875 C4.9375 0.1875 4.9375 0.1875 7.9375 2.1875 C7.6075 3.8375 7.2775 5.4875 6.9375 7.1875 C1.36859483 6.70763969 -3.73317568 5.88834819 -9.0625 4.1875 C-9.0625 3.1975 -9.0625 2.2075 -9.0625 1.1875 C-5.98998989 0.29640078 -3.19602607 0.02410276 0 0 Z " fill="#4A1B19" transform="translate(185.0625,182.8125)"/>
<path d="M0 0 C0.33 0 0.66 0 1 0 C1.01417969 0.556875 1.02835938 1.11375 1.04296875 1.6875 C1.38549394 7.16790306 2.60736478 10.51608056 5.72265625 15.00390625 C7.73569302 18.14966096 8.80340411 21.47319106 10 25 C9.01 25.33 8.02 25.66 7 26 C5.84962529 24.3990869 4.70485184 22.79414775 3.5625 21.1875 C2.92441406 20.29417969 2.28632813 19.40085937 1.62890625 18.48046875 C-0.85086822 14.70431339 -1.13677353 11.85846041 -1.125 7.4375 C-1.12757813 6.46683594 -1.13015625 5.49617188 -1.1328125 4.49609375 C-1 2 -1 2 0 0 Z " fill="#4B2426" transform="translate(148,72)"/>
<path d="M0 0 C2.97 0.495 2.97 0.495 6 1 C0.91626564 7.63709763 -5.2444783 12.17931218 -12 17 C-12.66 16.67 -13.32 16.34 -14 16 C-13.40832031 15.43152344 -12.81664062 14.86304688 -12.20703125 14.27734375 C-7.5968811 9.77248251 -3.5499655 5.38220575 0 0 Z " fill="#48282A" transform="translate(250,215)"/>
<path d="M0 0 C-0.825 0.45375 -1.65 0.9075 -2.5 1.375 C-3.325 1.91125 -4.15 2.4475 -5 3 C-5 3.66 -5 4.32 -5 5 C-5.68707031 5.06058594 -6.37414062 5.12117187 -7.08203125 5.18359375 C-8.43361328 5.30927734 -8.43361328 5.30927734 -9.8125 5.4375 C-11.15248047 5.55931641 -11.15248047 5.55931641 -12.51953125 5.68359375 C-15.12743559 5.93489767 -15.12743559 5.93489767 -18 7 C-24.47933884 7.34710744 -24.47933884 7.34710744 -28 5 C-27.17592651 4.83395264 -27.17592651 4.83395264 -26.33520508 4.66455078 C-23.82662467 4.15622273 -21.31957911 3.64067929 -18.8125 3.125 C-17.94818359 2.95097656 -17.08386719 2.77695313 -16.19335938 2.59765625 C-1.30389242 -0.48292312 -1.30389242 -0.48292312 0 0 Z " fill="#E8DEDE" transform="translate(225,184)"/>
<path d="M0 0 C3.5625 0.125 3.5625 0.125 5.5625 1.125 C5.5625 2.115 5.5625 3.105 5.5625 4.125 C0.06720233 5.72363205 -5.69960768 7.2321037 -11.4375 6.125 C-12.0975 5.135 -12.7575 4.145 -13.4375 3.125 C-12.48037109 2.92583984 -12.48037109 2.92583984 -11.50390625 2.72265625 C-10.67761719 2.54605469 -9.85132813 2.36945313 -9 2.1875 C-8.17628906 2.01347656 -7.35257813 1.83945312 -6.50390625 1.66015625 C-0.10879844 0.00395631 -0.10879844 0.00395631 0 0 Z " fill="#451C1C" transform="translate(208.4375,282.875)"/>
<path d="M0 0 C0.94314127 3.41610225 1.08065117 6.45134864 1 10 C0.030625 10.2475 -0.93875 10.495 -1.9375 10.75 C-2.948125 11.1625 -3.95875 11.575 -5 12 C-5.96877057 14.03243548 -5.96877057 14.03243548 -6 16 C-6 15.34 -6 14.68 -6 14 C-6.66 14 -7.32 14 -8 14 C-8 14.66 -8 15.32 -8 16 C-9.32 15.34 -10.64 14.68 -12 14 C-11.55269531 13.57589844 -11.10539063 13.15179688 -10.64453125 12.71484375 C-6.55048098 8.74300394 -3.186099 4.73087427 0 0 Z M2 6 C2.33 6.66 2.66 7.32 3 8 C2.34 7.67 1.68 7.34 1 7 C1.33 6.67 1.66 6.34 2 6 Z " fill="#EDE7E6" transform="translate(220,235)"/>
<path d="M0 0 C2.42381048 2.42381048 2.44016497 3.52894921 2.8125 6.875 C2.92207031 7.73867187 3.03164062 8.60234375 3.14453125 9.4921875 C2.91548658 13.46642198 0.71397304 15.28602696 -2 18 C-3.41514574 15.16970852 -3.20780992 12.71620867 -3.25 9.5625 C-3.28867188 7.83193359 -3.28867188 7.83193359 -3.328125 6.06640625 C-3 3 -3 3 -1.484375 1.08984375 C-0.74960938 0.55037109 -0.74960938 0.55037109 0 0 Z " fill="#431718" transform="translate(125,80)"/>
<path d="M0 0 C1 2 1 2 0.9375 4.875 C0.99919206 7.95960319 1.41229856 9.41998516 3 12 C1.68 11.67 0.36 11.34 -1 11 C-1.66 16.94 -2.32 22.88 -3 29 C-3.33 29 -3.66 29 -4 29 C-4.11643304 25.10441912 -4.18732909 21.20928742 -4.25 17.3125 C-4.28351563 16.20970703 -4.31703125 15.10691406 -4.3515625 13.97070312 C-4.45112665 5.7317694 -4.45112665 5.7317694 -1.984375 1.73046875 C-1.32953125 1.15941406 -0.6746875 0.58835938 0 0 Z " fill="#462421" transform="translate(85,157)"/>
<path d="M0 0 C1 3 1 3 0 6 C0.87914688 8.6569191 0.87914688 8.6569191 2 11 C2.99 10.01 3.98 9.02 5 8 C5 11 5 11 3.5390625 12.82421875 C2.90742188 13.43910156 2.27578125 14.05398437 1.625 14.6875 C0.99851563 15.31011719 0.37203125 15.93273437 -0.2734375 16.57421875 C-2 18 -2 18 -4 18 C-3.625 15.0625 -3.625 15.0625 -3 12 C-2.34 11.67 -1.68 11.34 -1 11 C-3.05233685 8.7522025 -4.00667261 7.9977758 -7 7 C-6.34 7 -5.68 7 -5 7 C-4.731875 6.401875 -4.46375 5.80375 -4.1875 5.1875 C-3.01506533 3.02775192 -1.80630718 1.64209744 0 0 Z " fill="#4C2729" transform="translate(208,234)"/>
<path d="M0 0 C2.6875 0.3125 2.6875 0.3125 5 1 C4.25 7.75 4.25 7.75 2 10 C1.67 9.34 1.34 8.68 1 8 C-2.02934491 7.34227572 -2.02934491 7.34227572 -5 7 C-5.33 6.01 -5.66 5.02 -6 4 C-5.01 3.67 -4.02 3.34 -3 3 C-2.54625 2.46375 -2.0925 1.9275 -1.625 1.375 C-1.08875 0.92125 -0.5525 0.4675 0 0 Z " fill="#471717" transform="translate(231,200)"/>
<path d="M0 0 C6.61776809 1.57964808 12.26239061 3.30242951 18 7 C15.76152748 10.35770877 15.59041601 10.2145965 12 11 C11.34 11.66 10.68 12.32 10 13 C9.7525 11.906875 9.505 10.81375 9.25 9.6875 C7.64734397 4.95966472 5.97691837 4.04337358 1.75 1.8125 C1.1725 1.544375 0.595 1.27625 0 1 C0 0.67 0 0.34 0 0 Z " fill="#4C2826" transform="translate(216,261)"/>
<path d="M0 0 C0 4.29 0 8.58 0 13 C-0.33 13 -0.66 13 -1 13 C-1.33 11.35 -1.66 9.7 -2 8 C-2.99 7.67 -3.98 7.34 -5 7 C-5 9.97 -5 12.94 -5 16 C-5.33 16 -5.66 16 -6 16 C-6.33 10.72 -6.66 5.44 -7 0 C-2 -1 -2 -1 0 0 Z " fill="#401416" transform="translate(186,128)"/>
<path d="M0 0 C1.32 0.33 2.64 0.66 4 1 C4.66 3.31 5.32 5.62 6 8 C2.17679443 9.42258812 -0.91281305 10.24042276 -5 10 C-2.25 4.25 -2.25 4.25 0 2 C0 1.34 0 0.68 0 0 Z " fill="#471A18" transform="translate(211,177)"/>
<path d="M0 0 C0.33 0.99 0.66 1.98 1 3 C1.66 3 2.32 3 3 3 C2.67 4.65 2.34 6.3 2 8 C-0.64 7.01 -3.28 6.02 -6 5 C-4.68 4.01 -3.36 3.02 -2 2 C-1.67 2.99 -1.34 3.98 -1 5 C-0.67 3.35 -0.34 1.7 0 0 Z M-5 6 C-3.66666667 8 -2.33333333 10 -1 12 C-2.65 12.33 -4.3 12.66 -6 13 C-6 12.34 -6 11.68 -6 11 C-7.32 10.67 -8.64 10.34 -10 10 C-8.35 8.68 -6.7 7.36 -5 6 Z " fill="#461414" transform="translate(229,167)"/>
<path d="M0 0 C0.66 0.33 1.32 0.66 2 1 C2 1.66 2 2.32 2 3 C2.66 3 3.32 3 4 3 C4 3.66 4 4.32 4 5 C4.99 4.67 5.98 4.34 7 4 C6.67 4.99 6.34 5.98 6 7 C4.824375 6.9690625 4.824375 6.9690625 3.625 6.9375 C1.01885039 6.81315937 1.01885039 6.81315937 -1 8 C-3.3828125 7.66015625 -3.3828125 7.66015625 -6.125 7.0625 C-7.03507813 6.86785156 -7.94515625 6.67320312 -8.8828125 6.47265625 C-9.58148438 6.31667969 -10.28015625 6.16070312 -11 6 C-11 5.67 -11 5.34 -11 5 C-9.1128125 4.5978125 -9.1128125 4.5978125 -7.1875 4.1875 C-4.00551199 3.40467463 -1.99755689 2.74664072 0 0 Z " fill="#532625" transform="translate(259,174)"/>
<path d="M0 0 C0.33 0.66 0.66 1.32 1 2 C0.34 2 -0.32 2 -1 2 C-0.814375 2.639375 -0.62875 3.27875 -0.4375 3.9375 C-0.293125 4.618125 -0.14875 5.29875 0 6 C-1 7 -1 7 -4.59765625 7.09765625 C-6.08596867 7.0909822 -7.57426432 7.07902183 -9.0625 7.0625 C-9.82111328 7.05798828 -10.57972656 7.05347656 -11.36132812 7.04882812 C-13.24091871 7.0370068 -15.12046899 7.01907078 -17 7 C-17 6.67 -17 6.34 -17 6 C-11.06 5.505 -11.06 5.505 -5 5 C-5 4.34 -5 3.68 -5 3 C-5.66 3 -6.32 3 -7 3 C-7 2.34 -7 1.68 -7 1 C-4.53721199 -0.231394 -2.7204945 -0.07159196 0 0 Z " fill="#43181B" transform="translate(173,261)"/>
<path d="M0 0 C2.64 0.99 5.28 1.98 8 3 C7.34 3.66 6.68 4.32 6 5 C6.66 5.33 7.32 5.66 8 6 C8.625 8.5625 8.625 8.5625 9 11 C5.44219804 10.39009109 2.3171411 9.4216319 -1 8 C-0.34 7.34 0.32 6.68 1 6 C0.67801034 2.90073181 0.67801034 2.90073181 0 0 Z " fill="#4D2526" transform="translate(94,173)"/>
<path d="M0 0 C2.79007727 1.91817812 3.73952804 3.19064979 5 6.375 C4.94819903 9.75760332 4.53782657 13.03788332 4 16.375 C2.41841038 13.36612219 1.56054661 10.73827963 1 7.375 C0.34 7.375 -0.32 7.375 -1 7.375 C-1 6.715 -1 6.055 -1 5.375 C-1.66 5.375 -2.32 5.375 -3 5.375 C-3 4.385 -3 3.395 -3 2.375 C-3.66 1.715 -4.32 1.055 -5 0.375 C-2 -0.625 -2 -0.625 0 0 Z " fill="#4A2120" transform="translate(264,171.625)"/>
<path d="M0 0 C5.39882424 4.59474404 10.71333087 9.27676273 16 14 C14.125 15.0625 14.125 15.0625 12 16 C10 15 10 15 9.25 13.25 C7.47579592 10.05643266 4.81422213 8.28655548 2 6 C0 3 0 3 0 0 Z " fill="#EBE0E0" transform="translate(129,110)"/>
<path d="M0 0 C6.70459519 5.0940919 6.70459519 5.0940919 7.9375 8.875 C7.958125 9.57625 7.97875 10.2775 8 11 C6.1875 11.6875 6.1875 11.6875 4 12 C2.25 10.8125 2.25 10.8125 1 9 C1 7.68 1 6.36 1 5 C0.69595322 3.32774271 0.36871088 1.65919896 0 0 Z " fill="#3D1919" transform="translate(155,90)"/>
<path d="M0 0 C0.66 0.99 1.32 1.98 2 3 C1.3203125 5.48046875 1.3203125 5.48046875 0.125 8.1875 C-0.45894531 9.53908203 -0.45894531 9.53908203 -1.0546875 10.91796875 C-1.36664063 11.60503906 -1.67859375 12.29210937 -2 13 C-3.65 13 -5.3 13 -7 13 C-7.33 12.01 -7.66 11.02 -8 10 C-6.6015625 8.02734375 -6.6015625 8.02734375 -4.625 5.9375 C-1.99549245 3.18958113 -1.99549245 3.18958113 0 0 Z " fill="#E7DDDA" transform="translate(184,147)"/>
<path d="M0 0 C3.36720387 1.39332574 4.9859524 2.9789286 7 6 C6.360625 6.103125 5.72125 6.20625 5.0625 6.3125 C4.381875 6.539375 3.70125 6.76625 3 7 C2.67 7.99 2.34 8.98 2 10 C0.2925002 8.71937515 -1.37373596 7.38232443 -3 6 C-3 4 -3 4 -1 2 C-0.67 1.34 -0.34 0.68 0 0 Z " fill="#4D2827" transform="translate(163,98)"/>
<path d="M0 0 C-1.27285929 2.38661117 -2.32242781 3.76028632 -4.91015625 4.67578125 C-6.32099604 5.01120777 -7.73794866 5.3220866 -9.16015625 5.60546875 C-11.0838914 5.93788836 -11.0838914 5.93788836 -13 7 C-14.67654729 6.72057545 -16.34608154 6.39171753 -18 6 C-17.443125 5.72542969 -16.88625 5.45085937 -16.3125 5.16796875 C-14.71648458 4.36187312 -13.13364576 3.5293364 -11.5625 2.67578125 C-10.2940625 2.00095703 -10.2940625 2.00095703 -9 1.3125 C-8.154375 0.85488281 -7.30875 0.39726562 -6.4375 -0.07421875 C-3.74306129 -1.0975873 -2.6471641 -1.01106962 0 0 Z " fill="#EDE3E0" transform="translate(238,280)"/>
<path d="M0 0 C1.32 0 2.64 0 4 0 C4.33 2.31 4.66 4.62 5 7 C4.01 7.66 3.02 8.32 2 9 C2.33 9.66 2.66 10.32 3 11 C1.02 11.99 1.02 11.99 -1 13 C-1.66 12.34 -2.32 11.68 -3 11 C-2.34 10.67 -1.68 10.34 -1 10 C-1.020625 9.0925 -1.04125 8.185 -1.0625 7.25 C-1.0110245 4.57327412 -0.7784983 2.53011948 0 0 Z " fill="#4E2423" transform="translate(244,170)"/>
<path d="M0 0 C0 1.65 0 3.3 0 5 C0.99 5.33 1.98 5.66 3 6 C2.67 6.66 2.34 7.32 2 8 C-1.375 8.125 -1.375 8.125 -5 8 C-5.66 7.34 -6.32 6.68 -7 6 C-6.875 4 -6.875 4 -6 2 C-3.85331506 0.61504198 -2.56128588 0 0 0 Z " fill="#461818" transform="translate(187,254)"/>
<path d="M0 0 C8.91 1.98 8.91 1.98 18 4 C15 6 15 6 12.73828125 5.7578125 C11.93777344 5.54898438 11.13726562 5.34015625 10.3125 5.125 C9.50425781 4.92132813 8.69601563 4.71765625 7.86328125 4.5078125 C7.24839844 4.34023437 6.63351563 4.17265625 6 4 C6 4.66 6 5.32 6 6 C6.66 6.33 7.32 6.66 8 7 C5.03 6.505 5.03 6.505 2 6 C1.34 4.02 0.68 2.04 0 0 Z " fill="#E6DBDA" transform="translate(102,184)"/>
<path d="M0 0 C0.78375 0.185625 1.5675 0.37125 2.375 0.5625 C4.97089775 1.25962266 4.97089775 1.25962266 7 0 C6.79503906 0.57234375 6.59007813 1.1446875 6.37890625 1.734375 C5.89980546 4.59910136 6.55411105 5.73474736 7.9375 8.25 C8.31777344 8.95640625 8.69804688 9.6628125 9.08984375 10.390625 C9.39019531 10.92171875 9.69054687 11.4528125 10 12 C9.01 12 8.02 12 7 12 C5.17578125 9.62890625 5.17578125 9.62890625 3.3125 6.5625 C2.68988281 5.55316406 2.06726563 4.54382813 1.42578125 3.50390625 C0 1 0 1 0 0 Z " fill="#EBE4E2" transform="translate(104,233)"/>
<path d="M0 0 C0.33 0 0.66 0 1 0 C1.08075665 2.29109597 1.13907731 4.58299267 1.1875 6.875 C1.22230469 8.15117187 1.25710938 9.42734375 1.29296875 10.7421875 C1.19628906 11.81726563 1.09960938 12.89234375 1 14 C0.01 14.66 -0.98 15.32 -2 16 C-2.66 15.67 -3.32 15.34 -4 15 C-3.32584613 9.7415998 -1.75734451 4.97361654 0 0 Z " fill="#4A2221" transform="translate(260,194)"/>
<path d="M0 0 C1.1875 1.5625 1.1875 1.5625 2 4 C-0.24489796 10.62244898 -0.24489796 10.62244898 -3 12 C-3.66 11.34 -4.32 10.68 -5 10 C-5 6.60406522 -4.47834052 5.93380119 -2.5 3.3125 C-2.0359375 2.68988281 -1.571875 2.06726563 -1.09375 1.42578125 C-0.7328125 0.95527344 -0.371875 0.48476562 0 0 Z " fill="#4D2421" transform="translate(215,224)"/>
<path d="M0 0 C0 0.33 0 0.66 0 1 C-2.64 1.33 -5.28 1.66 -8 2 C-8 3.32 -8 4.64 -8 6 C-8.66 6 -9.32 6 -10 6 C-10 7.65 -10 9.3 -10 11 C-10.66 11 -11.32 11 -12 11 C-12.8125 8.3125 -12.8125 8.3125 -13 5 C-8.63964551 -0.30313384 -6.59777189 -1.29086841 0 0 Z " fill="#EDE4E4" transform="translate(253,181)"/>
<path d="M0 0 C2.60704898 2.60704898 2.23905333 4.47338241 2.265625 8.02734375 C2 10 2 10 0 13 C-0.99 13 -1.98 13 -3 13 C-2.68991116 11.39536551 -2.37683713 9.79130769 -2.0625 8.1875 C-1.88847656 7.29417969 -1.71445313 6.40085938 -1.53515625 5.48046875 C-1 3 -1 3 0 0 Z " fill="#4F2B2A" transform="translate(228,191)"/>
<path d="M0 0 C5.76044212 0.60636233 10.72014369 2.75658279 16 5 C16 6.32 16 7.64 16 9 C12.93677967 8.40344287 11.01667524 7.47256249 8.5625 5.5625 C5.81969609 3.5172195 3.27282348 2.09094116 0 1 C0 0.67 0 0.34 0 0 Z " fill="#4A3435" transform="translate(213,147)"/>
<path d="M0 0 C2.31 0.33 4.62 0.66 7 1 C7 1.66 7 2.32 7 3 C8.65 2.67 10.3 2.34 12 2 C12 2.99 12 3.98 12 5 C7.90854474 6.16898722 6.45635697 6.24508059 2.625 4.1875 C1.75875 3.465625 0.8925 2.74375 0 2 C0 1.34 0 0.68 0 0 Z " fill="#F0E7E9" transform="translate(91,169)"/>
<path d="M0 0 C0.33 0 0.66 0 1 0 C1.04898438 0.59167969 1.09796875 1.18335937 1.1484375 1.79296875 C1.56456867 6.19104472 2.04965595 9.96928897 4 14 C2.02 14.99 2.02 14.99 0 16 C-1.03354508 12.89936477 -1.13364996 10.68555932 -1.125 7.4375 C-1.12757813 6.46683594 -1.13015625 5.49617188 -1.1328125 4.49609375 C-1 2 -1 2 0 0 Z " fill="#412C2D" transform="translate(148,72)"/>
<path d="M0 0 C0.96035156 0.15339844 1.92070312 0.30679687 2.91015625 0.46484375 C7.40603647 1.10711235 11.90451572 1.33968611 16.4375 1.5625 C17.67790039 1.62727539 17.67790039 1.62727539 18.94335938 1.69335938 C20.96209549 1.79838033 22.98102951 1.89958559 25 2 C25 2.33 25 2.66 25 3 C24.01257813 3.06058594 23.02515625 3.12117188 22.0078125 3.18359375 C20.72648437 3.26738281 19.44515625 3.35117187 18.125 3.4375 C16.84882813 3.51871094 15.57265625 3.59992188 14.2578125 3.68359375 C11.11699848 3.79206027 11.11699848 3.79206027 9 5 C6.8359375 4.22265625 6.8359375 4.22265625 4.375 3.0625 C3.55773437 2.68222656 2.74046875 2.30195313 1.8984375 1.91015625 C1.27195313 1.60980469 0.64546875 1.30945313 0 1 C0 0.67 0 0.34 0 0 Z " fill="#604F4E" transform="translate(132,261)"/>
<path d="M0 0 C1.51859736 2.72523481 2.0062707 3.84636797 1.875 7.0625 C0.87992435 10.40311112 -0.0405907 11.28163331 -3 13 C-4.23593891 9.29218328 -3.5678132 8.32489747 -2.0625 4.8125 C-1.68222656 3.91144531 -1.30195313 3.01039063 -0.91015625 2.08203125 C-0.60980469 1.39496094 -0.30945313 0.70789063 0 0 Z " fill="#EADDDC" transform="translate(235,206)"/>
<path d="M0 0 C3.125 -0.1875 3.125 -0.1875 6 0 C6.33 0.99 6.66 1.98 7 3 C6.01 4.485 6.01 4.485 5 6 C2.5 6.375 2.5 6.375 0 6 C-0.66 5.01 -1.32 4.02 -2 3 C-1.34 2.01 -0.68 1.02 0 0 Z " fill="#451512" transform="translate(130,184)"/>
<path d="M0 0 C5.61 0 11.22 0 17 0 C12.46563193 3.40077605 12.46563193 3.40077605 8.5 3.3125 C7.7471875 3.30863281 6.994375 3.30476563 6.21875 3.30078125 C3.78939106 2.97144914 2.11777285 2.20809315 0 1 C0 0.67 0 0.34 0 0 Z " fill="#391914" transform="translate(142,264)"/>
<path d="M0 0 C0 0.66 0 1.32 0 2 C0.66 2.33 1.32 2.66 2 3 C1.360625 3.28875 0.72125 3.5775 0.0625 3.875 C-2.15206079 4.82823451 -2.15206079 4.82823451 -3 7 C-4.65 7 -6.3 7 -8 7 C-8.33 7.66 -8.66 8.32 -9 9 C-9.66 8.34 -10.32 7.68 -11 7 C-9.54634731 5.82750647 -8.08692581 4.66216184 -6.625 3.5 C-5.40683594 2.52546875 -5.40683594 2.52546875 -4.1640625 1.53125 C-2 0 -2 0 0 0 Z " fill="#4F2725" transform="translate(200,244)"/>
<path d="M0 0 C2.56687367 3.8503105 1.83288724 5.58569763 1 10 C0.360625 10.12375 -0.27875 10.2475 -0.9375 10.375 C-1.618125 10.58125 -2.29875 10.7875 -3 11 C-3.33 11.66 -3.66 12.32 -4 13 C-4 9.12049035 -3.59216239 7.63334507 -2 4.25 C-1.62875 3.45078125 -1.2575 2.6515625 -0.875 1.828125 C-0.58625 1.22484375 -0.2975 0.6215625 0 0 Z " fill="#4D2728" transform="translate(221,212)"/>
<path d="M0 0 C2.45823172 3.68734758 3.01242616 6.69699971 4 11 C3.34 11 2.68 11 2 11 C1.34 10.34 0.68 9.68 0 9 C-0.99 9 -1.98 9 -3 9 C-3.33 7.35 -3.66 5.7 -4 4 C-3.67 4.66 -3.34 5.32 -3 6 C-2.34 6 -1.68 6 -1 6 C-0.67 4.02 -0.34 2.04 0 0 Z " fill="#543133" transform="translate(94,210)"/>
<path d="M0 0 C0.99 0.99 1.98 1.98 3 3 C1.54462432 3.83848804 0.08559627 4.67063934 -1.375 5.5 C-2.59316406 6.19609375 -2.59316406 6.19609375 -3.8359375 6.90625 C-6 8 -6 8 -8 8 C-8 7.01 -8 6.02 -8 5 C-6.25 3.61328125 -6.25 3.61328125 -4 2.3125 C-3.2575 1.87550781 -2.515 1.43851563 -1.75 0.98828125 C-1.1725 0.66214844 -0.595 0.33601562 0 0 Z " fill="#ECE2DF" transform="translate(185,250)"/>
<path d="M0 0 C0.33 0.66 0.66 1.32 1 2 C1.66 1.34 2.32 0.68 3 0 C5.125 0.375 5.125 0.375 7 1 C6.401875 1.268125 5.80375 1.53625 5.1875 1.8125 C2.94430723 2.86047309 2.94430723 2.86047309 1.5625 4.6875 C1.046875 5.120625 0.53125 5.55375 0 6 C-2.6875 5.6875 -2.6875 5.6875 -5 5 C-5 3.68 -5 2.36 -5 1 C-2 0 -2 0 0 0 Z " fill="#512426" transform="translate(109,180)"/>
<path d="M0 0 C0.66 0 1.32 0 2 0 C1.66902062 3.08914085 0.99715301 4.0026931 -1.3125 6.1875 C-3.69466602 7.79407709 -5.20379133 8.58574686 -8 9 C-8.33 8.01 -8.66 7.02 -9 6 C-7.68 5.67 -6.36 5.34 -5 5 C-5.66 4.67 -6.32 4.34 -7 4 C-3.535 3.505 -3.535 3.505 0 3 C0 2.01 0 1.02 0 0 Z " fill="#ECDEDD" transform="translate(174,149)"/>
<path d="M0 0 C3.3138009 0.57134498 4.78626651 1.49751866 7 4 C7.804375 4.7115625 7.804375 4.7115625 8.625 5.4375 C10.22320509 7.25364215 10.59344055 8.64195518 11 11 C10.01 11 9.02 11 8 11 C6.2109375 9.1015625 6.2109375 9.1015625 4.375 6.625 C3.76398438 5.81289062 3.15296875 5.00078125 2.5234375 4.1640625 C1 2 1 2 0 0 Z " fill="#F2E6E5" transform="translate(148,118)"/>
<path d="M0 0 C3.86323811 1.93161905 4.62040483 2.75509749 7 6 C7.66 6 8.32 6 9 6 C9.66 5.34 10.32 4.68 11 4 C10.67 5.32 10.34 6.64 10 8 C9.01 8 8.02 8 7 8 C6.67 8.66 6.34 9.32 6 10 C5.34 10 4.68 10 4 10 C2.68 6.7 1.36 3.4 0 0 Z " fill="#4C2425" transform="translate(174,120)"/>
<path d="M0 0 C-0.33 0.99 -0.66 1.98 -1 3 C-1.66 3 -2.32 3 -3 3 C-2.67 4.65 -2.34 6.3 -2 8 C-2.99 8 -3.98 8 -5 8 C-5 7.01 -5 6.02 -5 5 C-7.97 4.505 -7.97 4.505 -11 4 C-3.28571429 0 -3.28571429 0 0 0 Z " fill="#5A3436" transform="translate(219,279)"/>
<path d="M0 0 C2.3431213 0.25561323 4.67843403 0.59270772 7 1 C7.33 1.66 7.66 2.32 8 3 C9.88764903 3.68472665 9.88764903 3.68472665 12.0625 4.125 C12.79597656 4.29257813 13.52945313 4.46015625 14.28515625 4.6328125 C14.85105469 4.75398437 15.41695312 4.87515625 16 5 C16 5.33 16 5.66 16 6 C10.43109483 5.52013969 5.32932432 4.70084819 0 3 C0 2.01 0 1.02 0 0 Z " fill="#40120F" transform="translate(176,184)"/>
<path d="M0 0 C0.33 0.99 0.66 1.98 1 3 C-2.47512718 4.15837573 -4.13670286 3.77265943 -7.6875 3.0625 C-8.68136719 2.86785156 -9.67523438 2.67320312 -10.69921875 2.47265625 C-11.45847656 2.31667969 -12.21773437 2.16070312 -13 2 C-13 1.67 -13 1.34 -13 1 C-11.58366664 0.83052421 -10.16691467 0.66454493 -8.75 0.5 C-7.56664062 0.36078125 -7.56664062 0.36078125 -6.359375 0.21875 C-4 0 -4 0 0 0 Z " fill="#F2E7E6" transform="translate(200,290)"/>
<path d="M0 0 C-0.99 0.495 -0.99 0.495 -2 1 C-2 1.66 -2 2.32 -2 3 C-6.40914783 4.10228696 -10.48382401 4.07654536 -15 4 C-15 3.67 -15 3.34 -15 3 C-3 -1 -3 -1 0 0 Z " fill="#4E393E" transform="translate(170,158)"/>
<path d="M0 0 C7.57142857 3 7.57142857 3 10 6 C7.69 6.33 5.38 6.66 3 7 C3 6.01 3 5.02 3 4 C1.05990478 2.29467677 1.05990478 2.29467677 -1 1 C-0.67 0.67 -0.34 0.34 0 0 Z " fill="#EEE5E8" transform="translate(214,148)"/>
<path d="M0 0 C1.32 0.33 2.64 0.66 4 1 C4.33 4.3 4.66 7.6 5 11 C0 4.33333333 0 4.33333333 0 0 Z " fill="#EBE9E4" transform="translate(179,111)"/>
<path d="M0 0 C0.33 0 0.66 0 1 0 C1.05449838 1.72880982 1.09301688 3.45812712 1.125 5.1875 C1.14820313 6.15042969 1.17140625 7.11335937 1.1953125 8.10546875 C0.9913544 11.12812778 0.26874632 13.26769985 -1 16 C-1.33 16 -1.66 16 -2 16 C-2 12.7 -2 9.4 -2 6 C-1.34 6 -0.68 6 0 6 C0 4.02 0 2.04 0 0 Z " fill="#634A4B" transform="translate(159,134)"/>
<path d="M0 0 C0.66 0.33 1.32 0.66 2 1 C2.625 3.5625 2.625 3.5625 3 6 C0.69 6.33 -1.62 6.66 -4 7 C-3.43628586 3.73045798 -2.50037734 2.17424117 0 0 Z " fill="#42171B" transform="translate(219,279)"/>
<path d="M0 0 C0.33 0.99 0.66 1.98 1 3 C-1.475 4.485 -1.475 4.485 -4 6 C-7 4 -7 4 -8 2 C-5.36 1.34 -2.72 0.68 0 0 Z " fill="#EBE3E1" transform="translate(184,264)"/>
<path d="M0 0 C0.33 1.32 0.66 2.64 1 4 C-1.64 5.98 -4.28 7.96 -7 10 C-7.66 9.67 -8.32 9.34 -9 9 C-6.03 6.03 -3.06 3.06 0 0 Z " fill="#433330" transform="translate(245,222)"/>
<path d="M0 0 C0.99 0.33 1.98 0.66 3 1 C4.25 7.625 4.25 7.625 2 11 C1.34 11 0.68 11 0 11 C0.185625 9.9275 0.37125 8.855 0.5625 7.75 C0.9304568 4.59608454 1.04465343 2.90181508 0 0 Z " fill="#E2D8D5" transform="translate(225,156)"/>
<path d="M0 0 C0.66 0 1.32 0 2 0 C3.23921302 2.97411124 4.30058404 5.85262818 5 9 C4.67 8.34 4.34 7.68 4 7 C3.34 7 2.68 7 2 7 C1.67 7.66 1.34 8.32 1 9 C0.01 9 -0.98 9 -2 9 C-1.505 7.6078125 -1.505 7.6078125 -1 6.1875 C0.14967004 3.07970709 0.14967004 3.07970709 0 0 Z " fill="#481211" transform="translate(234,159)"/>
<path d="M0 0 C-0.99 0.66 -1.98 1.32 -3 2 C-3 2.66 -3 3.32 -3 4 C-6.375 4.1875 -6.375 4.1875 -10 4 C-10.66 3.01 -11.32 2.02 -12 1 C-10.56496445 0.63597631 -9.12683494 0.28413409 -7.6875 -0.0625 C-6.88699219 -0.25972656 -6.08648437 -0.45695312 -5.26171875 -0.66015625 C-3 -1 -3 -1 0 0 Z " fill="#3A1516" transform="translate(207,285)"/>
<path d="M0 0 C0.103125 0.61875 0.20625 1.2375 0.3125 1.875 C0.87525373 4.36526484 0.87525373 4.36526484 4 6 C4.66 6.66 5.32 7.32 6 8 C4.35 8.66 2.7 9.32 1 10 C-1.12508244 6.81237635 -1.5020163 4.73487777 -2 1 C-1.34 0.67 -0.68 0.34 0 0 Z " fill="#4B2220" transform="translate(188,252)"/>
<path d="M0 0 C1.2065625 0.0309375 1.2065625 0.0309375 2.4375 0.0625 C2.25 1.875 2.25 1.875 1.4375 4.0625 C-1.125 5.8125 -1.125 5.8125 -3.5625 7.0625 C-3.60504356 5.06295254 -3.60330783 3.06208364 -3.5625 1.0625 C-2.5625 0.0625 -2.5625 0.0625 0 0 Z " fill="#461F1E" transform="translate(201.5625,249.9375)"/>
<path d="M0 0 C0.66 0 1.32 0 2 0 C1.52797514 4.24822374 -0.96655518 6.19989709 -4 9 C-4.6875 7.1875 -4.6875 7.1875 -5 5 C-3.6875 3.25 -3.6875 3.25 -2 2 C-1.34 2 -0.68 2 0 2 C0 1.34 0 0.68 0 0 Z " fill="#42201F" transform="translate(218,234)"/>
<path d="M0 0 C0.33 0.99 0.66 1.98 1 3 C1.66 3 2.32 3 3 3 C2.38461538 8.53846154 2.38461538 8.53846154 0.4375 10.875 C-0.036875 11.24625 -0.51125 11.6175 -1 12 C-1 10.68 -1 9.36 -1 8 C-0.34 8 0.32 8 1 8 C0.649375 7.4225 0.29875 6.845 -0.0625 6.25 C-1.14917407 3.64198224 -0.93065133 2.60582371 0 0 Z " fill="#F7F2F1" transform="translate(219,205)"/>
<path d="M0 0 C0.95465783 2.16967689 1.14401212 3.56328793 0.3984375 5.82421875 C-0.35870385 7.5684743 -1.17609198 9.28627131 -2 11 C-2.66 10.67 -3.32 10.34 -4 10 C-4.99 9.67 -5.98 9.34 -7 9 C-5.38405168 6.95880212 -3.7143618 4.95927063 -2 3 C-1.34 3 -0.68 3 0 3 C0 2.01 0 1.02 0 0 Z " fill="#502B2B" transform="translate(230,161)"/>
<path d="M0 0 C0.99 0.33 1.98 0.66 3 1 C3.33 1.99 3.66 2.98 4 4 C1.64561267 5.42944945 0.51967567 6.08661261 -2.25 5.625 C-2.8275 5.41875 -3.405 5.2125 -4 5 C-2.68 3.35 -1.36 1.7 0 0 Z " fill="#462625" transform="translate(172,154)"/>
<path d="M0 0 C1.65 1.65 3.3 3.3 5 5 C4.01 5.99 3.02 6.98 2 8 C0.4375 6.8125 0.4375 6.8125 -1 5 C-0.6875 2.3125 -0.6875 2.3125 0 0 Z " fill="#E2DDD7" transform="translate(149,128)"/>
<path d="M0 0 C0.99 0.99 1.98 1.98 3 3 C2.01 3 1.02 3 0 3 C0.33 4.32 0.66 5.64 1 7 C-0.875 6.75 -0.875 6.75 -3 6 C-4.25 3.9375 -4.25 3.9375 -5 2 C-3.35 2 -1.7 2 0 2 C0 1.34 0 0.68 0 0 Z " fill="#4B2B2B" transform="translate(150,121)"/>
<path d="M0 0 C1.3921875 0.3403125 1.3921875 0.3403125 2.8125 0.6875 C2.125 2.625 2.125 2.625 0.8125 4.6875 C-1.8125 5.4375 -1.8125 5.4375 -4.1875 5.6875 C-4.8475 4.6975 -5.5075 3.7075 -6.1875 2.6875 C-4.14987265 -0.14253799 -3.59070275 -0.35202968 0 0 Z " fill="#EDE6E5" transform="translate(143.1875,265.3125)"/>
<path d="M0 0 C2.53910197 0.38520564 3.72751123 0.70097943 5.484375 2.62890625 C5.90203125 3.26699219 6.3196875 3.90507812 6.75 4.5625 C7.17796875 5.20316406 7.6059375 5.84382812 8.046875 6.50390625 C8.36140625 6.99761719 8.6759375 7.49132812 9 8 C8.67 8.66 8.34 9.32 8 10 C6.66070495 8.71451591 5.32871357 7.42141845 4 6.125 C2.88625 5.04605469 2.88625 5.04605469 1.75 3.9453125 C0 2 0 2 0 0 Z " fill="#443435" transform="translate(104,238)"/>
<path d="M0 0 C0.66 0.66 1.32 1.32 2 2 C1.625 4.625 1.625 4.625 1 7 C0.34 7 -0.32 7 -1 7 C-1.33 8.32 -1.66 9.64 -2 11 C-2.66 11 -3.32 11 -4 11 C-3.52269162 9.5410574 -3.04308958 8.08286504 -2.5625 6.625 C-2.29566406 5.81289062 -2.02882813 5.00078125 -1.75390625 4.1640625 C-1 2 -1 2 0 0 Z " fill="#E2D6D0" transform="translate(267,196)"/>
<path d="M0 0 C4.95 0.99 9.9 1.98 15 3 C15 3.33 15 3.66 15 4 C10.05 3.67 5.1 3.34 0 3 C0 2.01 0 1.02 0 0 Z " fill="#542C2B" transform="translate(177,187)"/>
<path d="M0 0 C1.125 1.625 1.125 1.625 2 4 C1.125 7.25 1.125 7.25 0 10 C-0.99 9.67 -1.98 9.34 -3 9 C-3 9.99 -3 10.98 -3 12 C-3.66 12 -4.32 12 -5 12 C-4.67 10.68 -4.34 9.36 -4 8 C-3.01 8 -2.02 8 -1 8 C-1.33 7.01 -1.66 6.02 -2 5 C-1.0625 2.3125 -1.0625 2.3125 0 0 Z " fill="#EDE8E5" transform="translate(177,140)"/>
<path d="M0 0 C-3.20336822 2.83374881 -5.78087253 3.5205537 -10 4 C-10.33 3.34 -10.66 2.68 -11 2 C-6.89657963 -0.38570952 -4.61380251 -1.49270081 0 0 Z " fill="#50282B" transform="translate(188,262)"/>
<path d="M0 0 C2.31 0.66 4.62 1.32 7 2 C7 2.99 7 3.98 7 5 C4.03 4.67 1.06 4.34 -2 4 C-1.34 2.68 -0.68 1.36 0 0 Z " fill="#E8E4E6" transform="translate(216,258)"/>
<path d="M0 0 C0.99 0 1.98 0 3 0 C2.67 2.97 2.34 5.94 2 9 C1.67 8.34 1.34 7.68 1 7 C0.34 7 -0.32 7 -1 7 C-0.67 4.69 -0.34 2.38 0 0 Z " fill="#522F2F" transform="translate(237,187)"/>
<path d="M0 0 C-0.33 3.63 -0.66 7.26 -1 11 C-3 9 -3 9 -3.1953125 7.0546875 C-3.13020833 5.03645833 -3.06510417 3.01822917 -3 1 C-1 0 -1 0 0 0 Z " fill="#EADBD8" transform="translate(230,180)"/>
<path d="M0 0 C1.65 0 3.3 0 5 0 C5 2.64 5 5.28 5 8 C4.34 8 3.68 8 3 8 C0 2.25 0 2.25 0 0 Z " fill="#472123" transform="translate(154,132)"/>
<path d="M0 0 C2.17854707 3.2678206 3.49760034 6.38058265 5 10 C4.01 10.33 3.02 10.66 2 11 C2 10.34 2 9.68 2 9 C1.34 9 0.68 9 0 9 C0 6.03 0 3.06 0 0 Z " fill="#EBDBDC" transform="translate(122,96)"/>
<path d="M0 0 C0.66 0 1.32 0 2 0 C2.33 0.99 2.66 1.98 3 3 C2.01 4.485 2.01 4.485 1 6 C0.54605448 8.27912938 0.54605448 8.27912938 0.375 10.6875 C0.30023438 11.49574219 0.22546875 12.30398437 0.1484375 13.13671875 C0.09945312 13.75160156 0.05046875 14.36648437 0 15 C-0.33 15 -0.66 15 -1 15 C-1.02715383 13.25008666 -1.04646551 11.50005055 -1.0625 9.75 C-1.07410156 8.77546875 -1.08570312 7.8009375 -1.09765625 6.796875 C-1.01195577 4.34241322 -0.70706066 2.33831086 0 0 Z " fill="#644547" transform="translate(122,78)"/>
<path d="M0 0 C1.4783226 2.95664519 1.06032783 5.74229737 1 9 C-1.475 8.01 -1.475 8.01 -4 7 C-2.92598892 4.08482708 -2.22189824 2.22189824 0 0 Z " fill="#4B3738" transform="translate(85,157)"/>
<path d="M0 0 C2.0625 0.1875 2.0625 0.1875 4 1 C4.33 1.99 4.66 2.98 5 4 C2.92446352 4.5534764 1.15634036 5 -1 5 C-1.33 4.01 -1.66 3.02 -2 2 C-1.34 1.34 -0.68 0.68 0 0 Z " fill="#E8E6E2" transform="translate(178,155)"/>
<path d="M0 0 C0 1.65 0 3.3 0 5 C1.32 5 2.64 5 4 5 C3.67 5.99 3.34 6.98 3 8 C1.125 7.875 1.125 7.875 -1 7 C-2.25 3.9375 -2.25 3.9375 -3 1 C-1 0 -1 0 0 0 Z " fill="#471114" transform="translate(180,119)"/>
<path d="M0 0 C1.98 0 3.96 0 6 0 C6 0.99 6 1.98 6 3 C5.34 3.66 4.68 4.32 4 5 C1.06546739 4.63318342 0.13562754 4.13562754 -2 2 C-1.34 2 -0.68 2 0 2 C0 1.34 0 0.68 0 0 Z " fill="#E3E0DD" transform="translate(118,290)"/>
<path d="M0 0 C0.99 0.33 1.98 0.66 3 1 C2.67 2.65 2.34 4.3 2 6 C1.34 6 0.68 6 0 6 C-0.33 6.99 -0.66 7.98 -1 9 C-1.33 7.68 -1.66 6.36 -2 5 C-1.34 5 -0.68 5 0 5 C0 3.35 0 1.7 0 0 Z " fill="#EBE2DE" transform="translate(201,235)"/>
<path d="M0 0 C0.33 0 0.66 0 1 0 C1.33 4.95 1.66 9.9 2 15 C1.01 15 0.02 15 -1 15 C-0.67 10.05 -0.34 5.1 0 0 Z " fill="#C2B3B2" transform="translate(269,181)"/>
<path d="M0 0 C0.33 0 0.66 0 1 0 C1.25 7.625 1.25 7.625 -1 11 C-2.25 3.375 -2.25 3.375 0 0 Z " fill="#EADEE0" transform="translate(93,193)"/>
<path d="M0 0 C1.32 0.33 2.64 0.66 4 1 C4 2.65 4 4.3 4 6 C3.34 5.67 2.68 5.34 2 5 C-0.09821215 5.39938767 -0.09821215 5.39938767 -2 6 C-2.33 5.34 -2.66 4.68 -3 4 C-2.01 3.34 -1.02 2.68 0 2 C0 1.34 0 0.68 0 0 Z " fill="#4E2726" transform="translate(227,176)"/>
<path d="M0 0 C0.66 0 1.32 0 2 0 C2.66 1.32 3.32 2.64 4 4 C2.35 5.65 0.7 7.3 -1 9 C-1.125 2.25 -1.125 2.25 0 0 Z " fill="#E7E7E6" transform="translate(82,153)"/>
<path d="M0 0 C2.15377564 2.62198774 3.40072174 4.64404172 4 8 C3.01 8.495 3.01 8.495 2 9 C1.34 8.67 0.68 8.34 0 8 C0 5.36 0 2.72 0 0 Z " fill="#472826" transform="translate(180,116)"/>
<path d="M0 0 C0.66 0 1.32 0 2 0 C2.28875 0.598125 2.5775 1.19625 2.875 1.8125 C4.04742026 4.19327792 4.04742026 4.19327792 6 7 C5.67 7.99 5.34 8.98 5 10 C2.08772731 6.71195019 0.50298788 4.40114397 0 0 Z " fill="#EBE3E1" transform="translate(130,94)"/>
<path d="M0 0 C1.40182371 2.61673759 2.60495559 5.0371669 3 8 C2.34 8.66 1.68 9.32 1 10 C-1.56687367 6.1496895 -0.83288724 4.41430237 0 0 Z " fill="#4C292A" transform="translate(128,90)"/>
<path d="M0 0 C-3.3 0.66 -6.6 1.32 -10 2 C-10 1.01 -10 0.02 -10 -1 C-3.375 -2.25 -3.375 -2.25 0 0 Z " fill="#F9EFEA" transform="translate(202,284)"/>
<path d="M0 0 C2.1385485 2.1385485 2.42655063 3.13275314 3 6 C2.34 6 1.68 6 1 6 C1 7.65 1 9.3 1 11 C0.67 11 0.34 11 0 11 C-0.66 8.36 -1.32 5.72 -2 3 C-1.34 3 -0.68 3 0 3 C0 2.01 0 1.02 0 0 Z " fill="#3B1616" transform="translate(229,153)"/>
<path d="M0 0 C0.66 0.33 1.32 0.66 2 1 C0.50260417 2.23697917 -0.99479167 3.47395833 -2.4921875 4.7109375 C-3.71051161 5.75250992 -4.86660097 6.86660097 -6 8 C-6.33 6.68 -6.66 5.36 -7 4 C-1.7265625 0.77734375 -1.7265625 0.77734375 0 0 Z " fill="#4F3F44" transform="translate(140,58)"/>
<path d="M0 0 C5.445 1.485 5.445 1.485 11 3 C10.01 3.99 9.02 4.98 8 6 C7.13375 5.319375 7.13375 5.319375 6.25 4.625 C4.2199667 3.15886484 2.26460157 2.05142216 0 1 C0 0.67 0 0.34 0 0 Z " fill="#5B494E" transform="translate(216,261)"/>
<path d="M0 0 C1.32 0.33 2.64 0.66 4 1 C2.515 3.475 2.515 3.475 1 6 C0.67 5.34 0.34 4.68 0 4 C-0.66 3.67 -1.32 3.34 -2 3 C-1.34 2.01 -0.68 1.02 0 0 Z " fill="#ECE1E1" transform="translate(250,209)"/>
<path d="M0 0 C0 0.66 0 1.32 0 2 C0.99 2.33 1.98 2.66 3 3 C0.1875 3.6875 0.1875 3.6875 -3 4 C-4.875 2.5625 -4.875 2.5625 -6 1 C-3 0 -3 0 0 0 Z " fill="#502C29" transform="translate(211,177)"/>
<path d="M0 0 C2.64 0 5.28 0 8 0 C8.33 1.32 8.66 2.64 9 4 C6.03 3.01 3.06 2.02 0 1 C0 0.67 0 0.34 0 0 Z " fill="#E1D9D6" transform="translate(219,148)"/>
<path d="M0 0 C0.99 0.33 1.98 0.66 3 1 C3.33 3.31 3.66 5.62 4 8 C2 6.25 2 6.25 0 4 C0 2.68 0 1.36 0 0 Z " fill="#EBDCDC" transform="translate(151,81)"/>
<path d="M0 0 C0.99 0 1.98 0 3 0 C1.62845496 2.95409701 0.01136276 5.44008376 -2 8 C-2 6.02 -2 4.04 -2 2 C-1.34 2 -0.68 2 0 2 C0 1.34 0 0.68 0 0 Z " fill="#F1E5E1" transform="translate(127,64)"/>
<path d="M0 0 C2.12508244 3.18762365 2.5020163 5.26512223 3 9 C2.01 8.67 1.02 8.34 0 8 C-1.125 2.25 -1.125 2.25 0 0 Z " fill="#E2D7D1" transform="translate(85,203)"/>
<path d="M0 0 C1 3 1 3 -0.4375 6.1875 C-1.2109375 7.5796875 -1.2109375 7.5796875 -2 9 C-2.33 9 -2.66 9 -3 9 C-3 6.36 -3 3.72 -3 1 C-2.01 1.495 -2.01 1.495 -1 2 C-0.67 1.34 -0.34 0.68 0 0 Z " fill="#441115" transform="translate(91,202)"/>
<path d="M0 0 C0 0.66 0 1.32 0 2 C-2.31 2 -4.62 2 -7 2 C-7 1.34 -7 0.68 -7 0 C-4.3333581 -1.33332095 -2.83319697 -0.67102033 0 0 Z " fill="#401C1D" transform="translate(202,187)"/>
<path d="M0 0 C2.97 0.495 2.97 0.495 6 1 C5.67 2.65 5.34 4.3 5 6 C4.34 5.67 3.68 5.34 3 5 C3 4.34 3 3.68 3 3 C2.01 2.67 1.02 2.34 0 2 C0 1.34 0 0.68 0 0 Z " fill="#EBE0DE" transform="translate(263,170)"/>
<path d="M0 0 C3 1 3 1 4.1875 3.0625 C4.455625 3.701875 4.72375 4.34125 5 5 C3.02 5.33 1.04 5.66 -1 6 C-0.67 4.02 -0.34 2.04 0 0 Z " fill="#EFE4DF" transform="translate(243,165)"/>
<path d="M0 0 C1.9375 0.375 1.9375 0.375 4 1 C4.33 1.66 4.66 2.32 5 3 C4.01 3.99 3.02 4.98 2 6 C0 3 0 3 0 0 Z " fill="#39171A" transform="translate(149,86)"/>
<path d="M0 0 C0.33 0 0.66 0 1 0 C1.33 3.63 1.66 7.26 2 11 C1.01 11 0.02 11 -1 11 C-0.67 7.37 -0.34 3.74 0 0 Z " fill="#D4CBCA" transform="translate(146,76)"/>
<path d="M0 0 C2.34058637 2.12780579 3.70700306 4.11562221 5 7 C4.01 7 3.02 7 2 7 C0 5 0 5 -1 3 C-0.67 2.01 -0.34 1.02 0 0 Z " fill="#EEE0E0" transform="translate(95,227)"/>
<path d="M0 0 C0.66 0.33 1.32 0.66 2 1 C1.67 2.32 1.34 3.64 1 5 C0.01 5 -0.98 5 -2 5 C-2.66 4.34 -3.32 3.68 -4 3 C-2.68 2.01 -1.36 1.02 0 0 Z " fill="#E6DDD9" transform="translate(246,225)"/>
<path d="M0 0 C0.99 0 1.98 0 3 0 C2.6875 2.375 2.6875 2.375 2 5 C1.01 5.66 0.02 6.32 -1 7 C-0.67 4.69 -0.34 2.38 0 0 Z " fill="#F0E6E6" transform="translate(244,217)"/>
<path d="M0 0 C2.125 0.375 2.125 0.375 4 1 C3.67 1.99 3.34 2.98 3 4 C0.9375 4.6875 0.9375 4.6875 -1 5 C-1.33 4.01 -1.66 3.02 -2 2 C-1.34 1.34 -0.68 0.68 0 0 Z " fill="#421A1B" transform="translate(253,212)"/>
<path d="M0 0 C0.33 0 0.66 0 1 0 C1 2.97 1 5.94 1 9 C0.01 9 -0.98 9 -2 9 C-1.34 6.03 -0.68 3.06 0 0 Z " fill="#5B3C3B" transform="translate(260,194)"/>
<path d="M0 0 C1.258125 -0.04125 2.51625 -0.0825 3.8125 -0.125 C4.52019531 -0.14820313 5.22789062 -0.17140625 5.95703125 -0.1953125 C8 0 8 0 11 2 C9.02 2.33 7.04 2.66 5 3 C5 2.34 5 1.68 5 1 C3.35 1 1.7 1 0 1 C0 0.67 0 0.34 0 0 Z " fill="#522E29" transform="translate(168,184)"/>
<path d="M0 0 C0.33 0.66 0.66 1.32 1 2 C-1.8125 2.625 -1.8125 2.625 -5 3 C-5.99 2.34 -6.98 1.68 -8 1 C-5.29120665 -0.35439668 -2.99066732 -0.06501451 0 0 Z " fill="#F1EAE8" transform="translate(200,178)"/>
<path d="M0 0 C-0.66 1.65 -1.32 3.3 -2 5 C-2.99 4.67 -3.98 4.34 -5 4 C-4.67 3.34 -4.34 2.68 -4 2 C-4.99 1.34 -5.98 0.68 -7 0 C-2.25 -1.125 -2.25 -1.125 0 0 Z " fill="#E1DADC" transform="translate(170,161)"/>
</svg>
